<mxfile host="app.diagrams.net" modified="2023-12-25T10:23:15.794Z" agent="Mozilla/5.0 (X11; Linux x86_64; rv:121.0) Gecko/20100101 Firefox/121.0" version="22.1.11" etag="LZBauAR4W13MQ5-eR4lL" type="github">
  <diagram name="Page-1" id="4w5t4u5b5JN-xkhLOmFL">
    <mxGraphModel>
      <root>
        <mxCell id="0" />
        <mxCell id="1" parent="0" />
      </root>
    </mxGraphModel>
  </diagram>
</mxfile>
